<svg width="126" height="53" viewBox="0 0 126 53" fill="none" xmlns="http://www.w3.org/2000/svg">
<g clip-path="url(#clip0_949_17824)">
<path style="mix-blend-mode:multiply" d="M70.18 43.6716C69.2694 44.2535 68.3095 44.753 67.3115 45.1641C52.1736 50.1882 44.3635 37.0473 47.9465 28.9199C48.3991 27.8982 48.9878 26.9435 49.6963 26.082H48.7836C48.5828 26.3001 48.3637 26.5524 48.0586 26.915C46.4499 28.9123 45.3042 31.2464 44.7051 33.7469C44.5539 34.4249 44.5539 34.4249 44.4913 34.7612C44.387 35.3892 44.387 35.3892 44.3452 35.6993C44.2774 36.3063 44.2774 36.3063 44.254 36.6111C44.2149 37.226 44.2149 37.226 44.207 37.536C44.207 38.1772 44.207 38.1877 44.207 38.5214C44.2383 39.2151 44.2383 39.2414 44.2722 39.6171V39.6907C45.5552 49.7074 58.4635 61.4583 70.5894 44.2024V44.1866C70.8293 43.8766 70.4877 43.4745 70.18 43.6716Z" fill="url(#paint0_linear_949_17824)"/>
<path style="mix-blend-mode:multiply" d="M29.9857 24.352C16.8193 23.766 -4.06599 24.8906 3.9997 39.0065L5.16797 40.8458C6.17976 42.2937 6.29189 42.4224 8.15381 44.493C9.41334 45.7701 9.58545 45.9041 11.6664 47.5464C13.2154 48.6421 13.4918 48.7919 15.6614 49.9481C17.1044 50.6407 18.6054 51.2035 20.1467 51.6298C21.8234 52.0775 23.5397 52.3573 25.2709 52.4654C27.666 52.5845 30.0659 52.3706 32.403 51.8295C32.9533 51.7007 32.9924 51.6876 34.0042 51.3959C34.4918 51.2461 34.4918 51.2461 35.441 50.9045C35.9 50.7337 35.9339 50.718 36.7997 50.3501C37.2508 50.1504 37.2508 50.1504 38.1426 49.7089C38.635 49.5108 39.1017 49.2531 39.5326 48.9417C42.2576 47.0629 46.6986 43.3894 48.5501 38.7779C49.1916 25.834 33.5296 24.5096 29.9857 24.352ZM42.242 35.0807C42.242 35.0991 42.242 35.1175 42.242 35.1359C42.1664 34.8127 42.1664 34.7444 42.2289 35.0807H42.242ZM34.6822 44.6927C27.5188 51.4616 8.10166 44.4667 10.5607 37.5744C13.1502 30.3194 34.8804 25.6369 42.255 35.3198C42.3541 37.9607 36.4815 42.99 34.6822 44.6927Z" fill="url(#paint1_linear_949_17824)"/>
<path d="M5.28678 41.1011C7.01048 43.3609 7.11219 43.4949 8.34042 44.7483C10.3666 46.6376 10.4866 46.7506 11.9339 47.8016C14.0931 49.2179 14.3173 49.3651 16.0228 50.2033C18.1455 51.1204 18.5262 51.2859 20.6098 51.885C22.3274 52.3313 24.0834 52.6111 25.8539 52.7206C28.3052 52.8462 30.762 52.6322 33.1555 52.0847C34.256 51.822 34.256 51.8219 34.7932 51.6511C35.7815 51.3358 35.7815 51.3358 36.2639 51.1598C37.1949 50.8024 37.1949 50.8024 37.6512 50.6053C38.5718 50.1928 38.5718 50.1928 39.0281 49.9642C39.9591 49.4781 39.9747 49.4702 40.4493 49.1969C41.4272 48.6083 41.4637 48.5847 41.9801 48.2404L42.0818 48.1695C55.5298 38.3026 62.2395 7.94519 27.6689 1.39705C26.5919 1.19209 25.5097 1.03969 24.4353 0.824219C27.0727 2.22807 29.508 3.98725 31.6743 6.05328C50.9715 27.0404 38.1936 50.0772 23.6034 50.5107C16.2757 50.7262 8.61945 46.3065 4.09766 39.2538L5.29199 41.0932" fill="url(#paint2_linear_949_17824)"/>
<path style="mix-blend-mode:multiply" d="M0 21.3422C2.9389 14.2081 8.18565 7.71514 14.2825 7.37617C23.1931 6.87954 30.6381 13.4198 34.4167 18.4597C41.1655 27.4647 42.12 40.6161 30.8859 48.331C43.403 41.5332 48.1986 25.3336 37.001 9.44151C37.001 9.44151 32.68 2.58331 23.2583 0.452273C19.1334 -0.518185 14.7993 0.051298 11.0594 2.05515C0.443313 7.64419 0 21.3422 0 21.3422Z" fill="url(#paint3_linear_949_17824)"/>
<path d="M54.8156 30.8279C55.1857 30.127 55.743 29.5445 56.4246 29.1462C57.1165 28.7505 57.9004 28.5473 58.6959 28.5576C59.3588 28.5434 60.0155 28.6874 60.6126 28.978C61.1178 29.2288 61.5627 29.5875 61.9164 30.0291V28.6995H64.4068V38.0172H61.9164V36.6534C61.5726 37.1135 61.1259 37.4853 60.6126 37.7387C60.0105 38.0342 59.3472 38.181 58.6776 38.167C57.8861 38.1753 57.1072 37.9664 56.4246 37.5626C55.7423 37.1536 55.1855 36.5625 54.8156 35.8546C54.4102 35.0747 54.2066 34.2044 54.2236 33.3242C54.2095 32.4552 54.4131 31.5966 54.8156 30.8279V30.8279ZM61.5748 31.8974C61.3508 31.4989 61.02 31.172 60.6204 30.954C60.2252 30.7374 59.782 30.6253 59.3322 30.6282C58.888 30.6233 58.45 30.7327 58.0596 30.9461C57.6659 31.1648 57.3387 31.4873 57.113 31.879C56.8637 32.3223 56.7385 32.8254 56.7505 33.3347C56.7393 33.849 56.8644 34.3569 57.113 34.8062C57.3332 35.2045 57.655 35.5364 58.0452 35.7673C58.4354 35.9983 58.8797 36.1201 59.3322 36.12C59.7822 36.122 60.2254 36.009 60.6204 35.7916C61.0205 35.5754 61.3515 35.2492 61.5748 34.8509C61.8078 34.3959 61.9294 33.8914 61.9294 33.3794C61.9294 32.8674 61.8078 32.3628 61.5748 31.9079V31.8974Z" fill="#A50064"/>
<path d="M77.2967 28.979C77.8026 28.7005 78.8613 28.5586 79.5002 28.5586V31.0312H78.3841C77.6174 31.0312 77.0402 31.2064 76.6525 31.5568C76.2649 31.9071 76.0702 32.5115 76.0684 33.3698V38.0103H73.6328V28.6952H76.0684V30.1404C76.3743 29.6554 76.7968 29.2559 77.2967 28.979V28.979Z" fill="#A50064"/>
<path d="M98.6345 33.9309H91.2546C91.2703 34.2267 91.3462 34.516 91.4776 34.7809C91.6091 35.0459 91.7933 35.2807 92.0187 35.4707C92.4887 35.8483 93.0764 36.0457 93.6772 36.0278C94.6247 36.0278 95.2992 35.6617 95.7008 34.9294H98.4519C98.15 35.8176 97.5591 36.5768 96.7752 37.0841C95.8689 37.6693 94.8077 37.9634 93.732 37.9276C92.8293 37.9426 91.9358 37.7427 91.1242 37.3442C90.3785 36.9818 89.7521 36.4108 89.3197 35.6993C88.8792 34.9579 88.6551 34.1064 88.673 33.2425C88.6541 32.3748 88.8744 31.5189 89.3093 30.7698C89.7342 30.0609 90.3549 29.492 91.0956 29.1328C91.914 28.7575 92.8022 28.5618 93.7013 28.5586C94.6005 28.5555 95.49 28.7449 96.311 29.1144C97.0382 29.4571 97.6514 30.0047 98.0764 30.691C98.5024 31.3983 98.7203 32.2129 98.7049 33.0401C98.7078 33.3386 98.6842 33.6367 98.6345 33.9309V33.9309ZM96.0659 32.3911C96.0666 32.1152 96.0025 31.843 95.8788 31.5968C95.755 31.3506 95.5752 31.1375 95.354 30.9748C94.8633 30.6133 94.2664 30.4283 93.659 30.4493C93.0835 30.4332 92.5203 30.6189 92.0656 30.9748C91.6303 31.3317 91.3497 31.8453 91.2833 32.4069L96.0659 32.3911Z" fill="#A50064"/>
<path d="M111.534 30.6447V35.1564C111.522 35.2802 111.537 35.405 111.577 35.5225C111.618 35.6399 111.683 35.7472 111.768 35.8369C111.996 35.9979 112.273 36.0724 112.551 36.0472H113.682V38.0337H112.149C110.096 38.0337 109.069 37.0702 109.069 35.1432V30.6447H107.922V28.7107H109.069V26.4062H111.534V28.7107H113.98V30.6447H111.534Z" fill="#A50064"/>
<path d="M123.435 27.2038C123.3 27.0784 123.193 26.9262 123.119 26.7568C123.046 26.5875 123.008 26.4046 123.008 26.2198C123.008 26.0349 123.046 25.8521 123.119 25.6827C123.193 25.5134 123.3 25.3612 123.435 25.2357C123.735 24.9813 124.114 24.8418 124.505 24.8418C124.897 24.8418 125.276 24.9813 125.576 25.2357C125.71 25.3616 125.817 25.5139 125.89 25.6832C125.963 25.8525 126.001 26.0352 126.001 26.2198C126.001 26.4044 125.963 26.587 125.89 26.7563C125.817 26.9256 125.71 27.0779 125.576 27.2038C125.277 27.4602 124.898 27.601 124.505 27.601C124.113 27.601 123.734 27.4602 123.435 27.2038V27.2038ZM125.706 28.7095V38.0272H123.268V28.7095H125.706Z" fill="#A50064"/>
</g>
<defs>
<linearGradient id="paint0_linear_949_17824" x1="60.4349" y1="50.8688" x2="52.9831" y2="29.5252" gradientUnits="userSpaceOnUse">
<stop offset="0.01" stop-color="#E6007E"/>
<stop offset="1" stop-color="#A50064"/>
</linearGradient>
<linearGradient id="paint1_linear_949_17824" x1="30.7367" y1="26.4252" x2="19.8038" y2="44.4378" gradientUnits="userSpaceOnUse">
<stop stop-color="#009ED7"/>
<stop offset="1" stop-color="#007BC4"/>
</linearGradient>
<linearGradient id="paint2_linear_949_17824" x1="4.09244" y1="26.7856" x2="52.9951" y2="26.7856" gradientUnits="userSpaceOnUse">
<stop stop-color="#A50064"/>
<stop offset="0.44" stop-color="#E6007E"/>
<stop offset="1" stop-color="#F9B036"/>
</linearGradient>
<linearGradient id="paint3_linear_949_17824" x1="2004.57" y1="10401.9" x2="9192.86" y2="10401.9" gradientUnits="userSpaceOnUse">
<stop offset="0.01" stop-color="#E6007E"/>
<stop offset="1" stop-color="#A50064"/>
</linearGradient>
<clipPath id="clip0_949_17824">
<rect width="126" height="53" fill="white"/>
</clipPath>
</defs>
</svg>
