<svg width="830" height="421" viewBox="0 0 830 421" fill="none" xmlns="http://www.w3.org/2000/svg">
<g clip-path="url(#clip0_1523_14502)">
<path d="M130.856 28.7446C167.045 28.7446 197.878 41.6294 223.322 67.3671C249.053 92.8496 261.903 123.658 261.903 159.857V290.969H130.856C94.6665 290.969 63.7062 278.244 37.975 252.793C12.5308 227.023 -0.191284 196.055 -0.191284 159.857C-0.191284 123.658 12.5308 92.8177 38.0069 67.3671C63.7062 41.6294 94.6665 28.7446 130.856 28.7446ZM209.261 159.857C209.261 138.138 201.609 119.64 186.336 104.363C171.063 89.0862 152.57 81.4319 130.856 81.4319C109.142 81.4319 90.649 89.0862 75.3761 104.363C59.8481 119.64 52.0682 138.17 52.0682 159.857C52.0682 181.576 59.8481 200.074 75.3761 215.351C90.6809 230.914 109.174 238.696 130.856 238.696H209.261V159.857Z" fill="#EC6726"/>
<path d="M366.773 348.568H357.207C358.291 351.662 360.141 354.181 362.819 356.031C365.561 358.008 368.59 358.997 371.97 358.997H398.148V369.458H371.97C364.732 369.458 358.546 366.906 353.413 361.835C348.311 356.701 345.792 350.513 345.792 343.274C345.792 336.034 348.343 329.879 353.413 324.776C358.546 319.641 364.732 317.058 371.97 317.058C379.208 317.058 385.362 319.641 390.463 324.776C395.597 329.879 398.179 336.034 398.179 343.274V348.504H366.773V348.568ZM372.002 327.614C368.622 327.614 365.561 328.571 362.851 330.516C360.173 332.43 358.291 334.95 357.239 338.075H386.797C385.712 334.981 383.863 332.462 381.185 330.516C378.443 328.571 375.382 327.614 372.002 327.614Z" fill="#EC6726"/>
<path d="M434.911 317.089C442.149 317.089 448.303 319.673 453.404 324.807C458.538 329.91 461.12 336.066 461.12 343.305V369.49H450.598V343.305C450.598 338.968 449.068 335.268 446.007 332.207C442.946 329.145 439.247 327.614 434.911 327.614C430.574 327.614 426.876 329.145 423.815 332.207C420.722 335.268 419.16 338.968 419.16 343.305V369.49H408.701V343.305C408.701 336.066 411.252 329.91 416.322 324.807C421.487 319.641 427.673 317.089 434.911 317.089Z" fill="#EC6726"/>
<path d="M491.794 348.568H482.228C483.312 351.662 485.162 354.181 487.84 356.031C490.582 358.008 493.611 358.997 496.991 358.997H523.168V369.458H496.991C489.753 369.458 483.567 366.906 478.434 361.835C473.332 356.701 470.813 350.513 470.813 343.274C470.813 336.034 473.364 329.879 478.434 324.776C483.567 319.641 489.753 317.058 496.991 317.058C504.229 317.058 510.383 319.641 515.484 324.776C520.618 329.879 523.2 336.034 523.2 343.274V348.504H491.794V348.568ZM497.023 327.614C493.643 327.614 490.582 328.571 487.872 330.516C485.193 332.43 483.312 334.95 482.26 338.075H511.817C510.733 334.981 508.884 332.462 506.206 330.516C503.464 328.571 500.403 327.614 497.023 327.614Z" fill="#EC6726"/>
<path d="M534.551 369.458V343.274C534.551 336.034 537.102 329.879 542.172 324.776C547.305 319.641 553.491 317.058 560.729 317.058H571.187V327.582H560.729C556.393 327.582 552.694 329.113 549.633 332.175C546.54 335.237 544.978 338.936 544.978 343.274V369.458H534.551Z" fill="#EC6726"/>
<path d="M629.314 369.458C629.314 376.698 626.731 382.885 621.597 388.02C616.496 393.123 610.342 395.642 603.136 395.642C596.855 395.642 591.307 393.633 586.428 389.614C581.646 385.692 578.68 380.716 577.501 374.657H588.341C589.426 377.75 591.275 380.27 593.953 382.215C596.695 384.193 599.724 385.181 603.104 385.181C607.441 385.181 611.139 383.618 614.2 380.525C617.261 377.463 618.792 373.764 618.792 369.426V364.196C614.168 367.672 608.971 369.426 603.136 369.426C595.898 369.426 589.712 366.875 584.579 361.804C579.477 356.669 576.958 350.482 576.958 343.242C576.958 336.002 579.509 329.847 584.579 324.744C589.712 319.609 595.898 317.026 603.136 317.026H629.314V369.458ZM618.792 327.614H603.136C598.8 327.614 595.101 329.145 592.04 332.207C588.947 335.269 587.385 338.968 587.385 343.306C587.385 347.643 588.947 351.343 592.04 354.404C595.101 357.498 598.8 359.061 603.136 359.061C607.472 359.061 611.171 357.498 614.232 354.404C617.293 351.343 618.823 347.643 618.823 343.306V327.614H618.792Z" fill="#EC6726"/>
<path d="M641.43 317.089V369.49H651.888V317.089H641.43Z" fill="#EC6726"/>
<path d="M687.822 317.089C695.06 317.089 701.214 319.673 706.284 324.807C711.417 329.91 714 336.066 714 343.305V369.49H687.822C680.585 369.49 674.399 366.938 669.265 361.867C664.164 356.732 661.645 350.545 661.645 343.305C661.645 336.066 664.196 329.91 669.265 324.807C674.399 319.641 680.585 317.089 687.822 317.089ZM703.478 343.274C703.478 338.936 701.947 335.236 698.886 332.175C695.826 329.113 692.127 327.582 687.791 327.582C683.454 327.582 679.756 329.113 676.695 332.175C673.602 335.236 672.039 338.936 672.039 343.274C672.039 347.611 673.602 351.311 676.695 354.372C679.756 357.466 683.454 359.029 687.791 359.029H703.446V343.274H703.478Z" fill="#EC6726"/>
<path d="M412.719 264.498V290.682H347.068C328.957 290.682 313.429 284.303 300.548 271.546C287.794 258.661 281.417 243.13 281.417 225.014C281.417 206.867 287.794 191.431 300.548 178.674C313.429 165.789 328.957 159.347 347.068 159.347C362.787 159.347 376.689 164.386 388.742 174.464C400.698 184.255 408.223 196.757 411.316 211.938H384.118C381.44 204.156 376.753 197.842 370.025 192.994C363.17 188.146 355.517 185.754 347.068 185.754C336.195 185.754 326.948 189.581 319.296 197.236C311.516 204.89 307.626 214.171 307.626 225.046C307.626 235.922 311.516 245.203 319.296 252.825C326.948 260.607 336.195 264.498 347.068 264.498H412.719Z" fill="#EC6726"/>
<path d="M484.492 238.314H460.515C463.193 246.096 467.88 252.347 474.608 257.035C481.463 262.01 489.115 264.498 497.565 264.498H563.216V290.682H497.565C479.422 290.682 463.926 284.303 451.045 271.546C438.291 258.661 431.914 243.13 431.914 225.014C431.914 206.867 438.291 191.431 451.045 178.674C463.926 165.789 479.422 159.347 497.565 159.347C515.675 159.347 531.14 165.789 543.894 178.674C556.775 191.431 563.216 206.867 563.216 225.014V238.314H484.492ZM497.597 185.754C489.147 185.754 481.495 188.178 474.64 192.994C467.912 197.842 463.225 204.156 460.546 211.938H534.647C531.969 204.156 527.25 197.842 520.554 192.994C513.699 188.178 506.046 185.754 497.597 185.754Z" fill="#EC6726"/>
<path d="M648.349 159.347C666.46 159.347 681.924 165.789 694.678 178.674C707.559 191.431 714 206.867 714 225.014V290.682H648.349C630.238 290.682 614.71 284.303 601.829 271.546C589.075 258.661 582.698 243.13 582.698 225.014C582.698 206.867 589.075 191.431 601.829 178.674C614.742 165.821 630.238 159.347 648.349 159.347ZM687.631 225.014C687.631 214.139 683.805 204.858 676.153 197.204C668.5 189.549 659.254 185.722 648.349 185.722C637.476 185.722 628.229 189.549 620.545 197.204C612.765 204.858 608.875 214.139 608.875 225.014C608.875 235.89 612.765 245.171 620.545 252.793C628.198 260.575 637.476 264.466 648.349 264.466H687.631V225.014Z" fill="#EC6726"/>
</g>
<defs>
<clipPath id="clip0_1523_14502">
<rect width="830" height="421" fill="white"/>
</clipPath>
</defs>
</svg>
